<svg xmlns="http://www.w3.org/2000/svg" viewBox="0 0 64 64">
  <defs/>
  <radialGradient id="a" cx="32" cy="31.5" r="31.259" gradientUnits="userSpaceOnUse" spreadMethod="reflect">
    <stop offset="0" stop-color="#c5f1ff"/>
    <stop offset=".35" stop-color="#cdf3ff"/>
    <stop offset=".907" stop-color="#e4faff"/>
    <stop offset="1" stop-color="#e9fbff"/>
  </radialGradient>
  <path fill="url(#a)" d="M58 54a2 2 0 110-4h2.5c1.925 0 3.5-1.575 3.5-3.5S62.425 43 60.5 43H50a2.5 2.5 0 110-5h8c1.65 0 3-1.35 3-3s-1.35-3-3-3H42v-6h18c2.335 0 4.22-2.028 3.979-4.41-.209-2.076-2.082-3.59-4.168-3.59H58a2 2 0 110-4h.357c1.308 0 2.499-.941 2.63-2.242A2.5 2.5 0 0058.5 9h-14a1.5 1.5 0 010-3h3.857c1.308 0 2.499-.941 2.63-2.242A2.5 2.5 0 0048.5 1H15.643c-1.308 0-2.499.941-2.63 2.242A2.5 2.5 0 0015.5 6H19a2 2 0 110 4H6.189c-2.086 0-3.958 1.514-4.168 3.59C1.78 15.972 3.665 18 6 18h2.5a3.5 3.5 0 110 7H5.189c-2.086 0-3.958 1.514-4.168 3.59C.78 30.972 2.665 33 5 33h17v11H6c-1.65 0-3 1.35-3 3s1.35 3 3 3a2 2 0 110 4H4.189C2.103 54 .231 55.514.021 57.59-.22 59.972 1.665 62 4 62h53.811c2.086 0 3.958-1.514 4.168-3.59C62.22 56.028 60.335 54 58 54z"/>
  <linearGradient id="b" x1="32" x2="32" y1="59.381" y2="15.381" gradientUnits="userSpaceOnUse" spreadMethod="reflect">
    <stop offset="0" stop-color="#155cde"/>
    <stop offset=".278" stop-color="#1f7fe5"/>
    <stop offset=".569" stop-color="#279ceb"/>
    <stop offset=".82" stop-color="#2cafef"/>
    <stop offset="1" stop-color="#2eb5f0"/>
  </linearGradient>
  <path fill="url(#b)" d="M50 12H14a4 4 0 00-4 4v36a4 4 0 004 4h36a4 4 0 004-4V16a4 4 0 00-4-4z"/>
  <path fill="#fff" d="M19 28h2a2 2 0 012 2v17a2 2 0 01-2 2h-2a2 2 0 01-2-2V30a2 2 0 012-2zm.981-3h-.033C18.158 25 17 23.664 17 22c0-1.706 1.195-3 3.019-3 1.823 0 2.948 1.294 2.981 3 0 1.664-1.158 3-3.019 3zM45 49h-2a2 2 0 01-2-2v-9.372c0-2.749-1.506-4.624-4.239-4.624-1.953 0-3.133 1.265-3.626 2.485-.181.44-.135 1.651-.135 2.261V47c0 1.105-.888 2-1.993 2H29a2 2 0 01-2-2V30a2 2 0 012-2h2.007a2 2 0 012 2v1.021C33.911 29.625 35.564 28 39.173 28 43.646 28 47 30.563 47 36.842V47a2 2 0 01-2 2z"/>
</svg>
